<?xml version="1.0" encoding="utf-8"?>
<!-- Generator: Adobe Illustrator 16.0.0, SVG Export Plug-In . SVG Version: 6.00 Build 0)  -->
<!DOCTYPE svg PUBLIC "-//W3C//DTD SVG 1.1//EN" "http://www.w3.org/Graphics/SVG/1.1/DTD/svg11.dtd" [
	<!ENTITY st0 "fill:#141110;">
	<!ENTITY st1 "display:none;fill:#A7A9AC;">
	<!ENTITY st2 "fill:#F9F9FA;">
	<!ENTITY st3 "fill:none;">
]>
<svg version="1.1" id="Layer_1" xmlns="http://www.w3.org/2000/svg" xmlns:xlink="http://www.w3.org/1999/xlink" x="0px" y="0px"
	 width="34px" height="34px" viewBox="0 0 34 34" style="enable-background:new 0 0 34 34;" xml:space="preserve">
<rect style="&st1;" width="34" height="34"/>
<g>
	<rect x="-1.7783" y="1.0806" style="&st3;" width="38.3438" height="34.0005"/>
	<path style="&st2;" d="M12.0093,24.6758c0.4321,0.5449,0.7383,1.1113,0.9185,1.7012c0.1797,0.5879,0.2695,1.2344,0.2695,1.9375
		c0,0.7246-0.1079,1.4102-0.3237,2.0566s-0.5581,1.2188-1.0259,1.7168c-0.4683,0.498-1.0684,0.8906-1.8003,1.1738
		c-0.7324,0.2832-1.6143,0.4238-2.646,0.4238c-0.7441,0-1.3921-0.0508-1.9438-0.1523c-0.5522-0.1016-1.0322-0.2383-1.4399-0.4082
		c-0.4082-0.1699-0.7686-0.3574-1.0801-0.5605c-0.312-0.2031-0.5884-0.4082-0.8276-0.6113
		c0.0474-0.7949,0.0718-1.5703,0.0718-2.3301s-0.0361-1.5117-0.1079-2.2598c0.2637-0.0684,0.5635-0.1191,0.8999-0.1543
		c0.3359-0.0332,0.6479-0.0508,0.936-0.0508c0.0957,1.043,0.2573,1.8867,0.4858,2.5332c0.228,0.6465,0.5039,1.1504,0.8281,1.5137
		c0.3237,0.3613,0.6895,0.6055,1.0981,0.7305c0.4077,0.125,0.8398,0.1875,1.2959,0.1875c0.9839,0,1.7515-0.2441,2.3037-0.7324
		c0.5518-0.4863,0.8281-1.1602,0.8281-2.0215c0-0.4766-0.0542-0.8965-0.1621-1.2578c-0.1079-0.3633-0.3237-0.7207-0.6479-1.0723
		c-0.3237-0.3516-0.7979-0.7129-1.4219-1.0879c-0.6245-0.373-1.4521-0.8105-2.4839-1.3086c-1.0566-0.498-1.9385-1.0078-2.646-1.5293
		c-0.7085-0.5215-1.2842-1.0723-1.728-1.6504c-0.4443-0.5781-0.7622-1.207-0.9541-1.8867
		c-0.1924-0.6797-0.2881-1.4502-0.2881-2.3115c0-0.6802,0.1021-1.3262,0.3062-1.938c0.2036-0.6123,0.498-1.1787,0.8818-1.7002
		c0.3838-0.521,0.8516-0.9629,1.4043-1.3262c0.4316-0.2939,0.9233-0.5439,1.4761-0.7476c-0.0488-0.0454-0.0962-0.0796-0.144-0.1021
		c-0.6724-0.5215-1.1943-1.0596-1.5664-1.6152C2.4033,9.2803,2.1572,8.7134,2.0376,8.1353
		c-0.1201-0.5776-0.1802-1.1611-0.1802-1.751c0-0.6797,0.1318-1.3311,0.396-1.9546s0.6421-1.1733,1.1343-1.6494
		c0.4917-0.4756,1.0801-0.8608,1.7637-1.1558c0.6841-0.2944,1.458-0.4419,2.3223-0.4419c1.1997,0,2.1777,0.1475,2.9341,0.4419
		c0.7559,0.2949,1.3735,0.6235,1.854,0.9858c-0.0488,0.5898-0.0723,1.2358-0.0723,1.938c0,0.7031,0.0361,1.3828,0.1079,2.04
		c-0.312,0.0908-0.6064,0.1592-0.8818,0.2041c-0.2764,0.0459-0.5942,0.0679-0.9541,0.0679c-0.144-0.8384-0.3184-1.5239-0.522-2.0566
		C9.7354,4.271,9.5073,3.8516,9.2554,3.5454S8.7212,3.0303,8.4097,2.9165C8.0972,2.8032,7.7617,2.7466,7.4014,2.7466
		c-0.48,0-0.9121,0.0796-1.2959,0.2378c-0.3843,0.1592-0.7144,0.374-0.9897,0.646c-0.2764,0.272-0.4863,0.5781-0.6299,0.918
		c-0.144,0.3403-0.2163,0.6802-0.2163,1.02c0,0.4082,0.0415,0.7822,0.126,1.1221c0.084,0.3398,0.27,0.6748,0.5581,1.0029
		c0.2881,0.3291,0.7075,0.6631,1.2598,1.0029c0.5522,0.3403,1.2837,0.7031,2.1963,1.0884c1.2236,0.5215,2.25,1.0259,3.0776,1.5127
		c0.8281,0.4878,1.5059,1.0088,2.0342,1.564c0.5278,0.5557,0.9058,1.1733,1.1338,1.853c0.228,0.6802,0.3423,1.4736,0.3423,2.3804
		c0,0.7256-0.1206,1.4229-0.3599,2.0908c-0.2402,0.668-0.5942,1.2813-1.062,1.8359c-0.4683,0.5566-1.0386,1.0371-1.71,1.4453
		c-0.4805,0.2715-0.9966,0.498-1.5483,0.6797C11.0132,23.6445,11.5776,24.1563,12.0093,24.6758z M7.4736,21.582l0.7559,0.375
		c0.6958-0.0918,1.2959-0.2266,1.7998-0.4082c0.624-0.25,1.1221-0.5488,1.4941-0.9004s0.6357-0.7422,0.792-1.1738
		c0.1558-0.4307,0.2339-0.8613,0.2339-1.292c0-0.4531-0.0664-0.8896-0.1978-1.3091c-0.1323-0.4194-0.396-0.8384-0.792-1.2578
		s-0.9604-0.8501-1.6919-1.292c-0.7324-0.4424-1.6865-0.9126-2.8623-1.4111c-0.2397-0.0903-0.4561-0.1812-0.6479-0.272
		c-1.1284,0.2041-1.9922,0.6118-2.5918,1.2236c-0.6479,0.6802-0.9722,1.5303-0.9722,2.5503c0,0.4761,0.0659,0.9297,0.1982,1.3599
		c0.1313,0.4307,0.3716,0.8564,0.7197,1.2744c0.3477,0.4199,0.8218,0.8398,1.4224,1.2578
		C5.7334,20.7266,6.5132,21.1523,7.4736,21.582z"/>
	<path style="&st2;" d="M31.0176,24.6758c0.4316,0.5449,0.7363,1.1113,0.918,1.7012c0.1797,0.5879,0.2695,1.2344,0.2695,1.9375
		c0,0.7246-0.1074,1.4102-0.3242,2.0566s-0.5586,1.2188-1.0254,1.7168c-0.4688,0.498-1.0684,0.8906-1.8008,1.1738
		s-1.6133,0.4238-2.6465,0.4238c-0.7441,0-1.3906-0.0508-1.9434-0.1523s-1.0313-0.2383-1.4395-0.4082s-0.7695-0.3574-1.0801-0.5605
		c-0.3125-0.2031-0.5879-0.4082-0.8281-0.6113c0.0469-0.7949,0.0723-1.5703,0.0723-2.3301s-0.0371-1.5117-0.1094-2.2598
		c0.2656-0.0684,0.5645-0.1191,0.9004-0.1543c0.3359-0.0332,0.6484-0.0508,0.9355-0.0508c0.0957,1.043,0.2578,1.8867,0.4863,2.5332
		s0.5039,1.1504,0.8281,1.5137c0.3242,0.3613,0.6895,0.6055,1.0977,0.7305s0.8398,0.1875,1.2969,0.1875
		c0.9844,0,1.752-0.2441,2.3047-0.7324c0.5508-0.4863,0.8281-1.1602,0.8281-2.0215c0-0.4766-0.0547-0.8965-0.1621-1.2578
		c-0.1094-0.3633-0.3242-0.7207-0.6484-1.0723s-0.7988-0.7129-1.4219-1.0879c-0.625-0.373-1.4531-0.8105-2.4844-1.3086
		c-1.0566-0.498-1.9375-1.0078-2.6465-1.5293c-0.707-0.5215-1.2832-1.0723-1.7285-1.6504c-0.4434-0.5781-0.7617-1.207-0.9531-1.8867
		s-0.2871-1.4502-0.2871-2.3115c0-0.6802,0.1016-1.3262,0.3047-1.938c0.2051-0.6123,0.498-1.1787,0.8828-1.7002
		c0.3828-0.521,0.8516-0.9629,1.4043-1.3262c0.4316-0.2939,0.9238-0.5439,1.4746-0.7476c-0.0469-0.0454-0.0957-0.0796-0.1426-0.1021
		c-0.6738-0.5215-1.1953-1.0596-1.5664-1.6152c-0.373-0.5552-0.6191-1.1221-0.7383-1.7002
		c-0.1211-0.5776-0.1797-1.1611-0.1797-1.751c0-0.6797,0.1309-1.3311,0.3965-1.9546c0.2637-0.6235,0.6406-1.1733,1.1328-1.6494
		c0.4922-0.4756,1.0801-0.8608,1.7637-1.1558c0.6855-0.2944,1.459-0.4419,2.3223-0.4419c1.2012,0,2.1777,0.1475,2.9336,0.4419
		c0.7559,0.2949,1.375,0.6235,1.8555,0.9858c-0.0488,0.5898-0.0723,1.2358-0.0723,1.938c0,0.7031,0.0352,1.3828,0.1074,2.04
		c-0.3125,0.0908-0.6055,0.1592-0.8828,0.2041c-0.2754,0.0459-0.5938,0.0679-0.9531,0.0679
		c-0.1445-0.8384-0.3184-1.5239-0.5215-2.0566c-0.2051-0.5327-0.4316-0.9521-0.6836-1.2583s-0.5352-0.5151-0.8477-0.6289
		c-0.3105-0.1133-0.6465-0.1699-1.0078-0.1699c-0.4805,0-0.9121,0.0796-1.2949,0.2378c-0.3848,0.1592-0.7148,0.374-0.9902,0.646
		s-0.4863,0.5781-0.6309,0.918c-0.1426,0.3403-0.2148,0.6802-0.2148,1.02c0,0.4082,0.041,0.7822,0.125,1.1221
		s0.2715,0.6748,0.5586,1.0029c0.2871,0.3291,0.707,0.6631,1.2598,1.0029c0.5527,0.3403,1.2832,0.7031,2.1953,1.0884
		c1.2246,0.5215,2.25,1.0259,3.0781,1.5127c0.8281,0.4878,1.5059,1.0088,2.0352,1.564c0.5273,0.5557,0.9043,1.1733,1.1328,1.853
		c0.2285,0.6802,0.3418,1.4736,0.3418,2.3804c0,0.7256-0.1191,1.4229-0.3594,2.0908s-0.5938,1.2813-1.0625,1.8359
		c-0.4668,0.5566-1.0371,1.0371-1.709,1.4453c-0.4805,0.2715-0.9961,0.498-1.5488,0.6797
		C30.0215,23.6445,30.584,24.1563,31.0176,24.6758z M26.4805,21.582l0.7559,0.375c0.6973-0.0918,1.2969-0.2266,1.8008-0.4082
		c0.623-0.25,1.1211-0.5488,1.4941-0.9004c0.3711-0.3516,0.6348-0.7422,0.791-1.1738c0.1563-0.4307,0.2344-0.8613,0.2344-1.292
		c0-0.4531-0.0664-0.8896-0.1973-1.3091c-0.1328-0.4194-0.3965-0.8384-0.793-1.2578s-0.959-0.8501-1.6914-1.292
		c-0.7324-0.4424-1.6855-0.9126-2.8613-1.4111c-0.2402-0.0903-0.457-0.1812-0.6484-0.272
		c-1.1289,0.2041-1.9922,0.6118-2.5918,1.2236c-0.6484,0.6802-0.9727,1.5303-0.9727,2.5503c0,0.4761,0.0664,0.9297,0.1973,1.3599
		c0.1328,0.4307,0.373,0.8564,0.7207,1.2744c0.3477,0.4199,0.8223,0.8398,1.4219,1.2578
		C24.7402,20.7266,25.5215,21.1523,26.4805,21.582z"/>
</g>
<g>
	<rect x="-2.1714" y="0.4038" style="&st3;" width="38.3433" height="34.0005"/>
	<path style="&st0;" d="M11.6162,24c0.4321,0.543,0.7383,1.1094,0.9185,1.6992c0.1797,0.5898,0.2695,1.2363,0.2695,1.9395
		c0,0.7246-0.1079,1.4102-0.3237,2.0566c-0.2158,0.6445-0.5581,1.2168-1.0259,1.7168c-0.4683,0.498-1.0684,0.8887-1.8003,1.1719
		c-0.7324,0.2832-1.6143,0.4258-2.646,0.4258c-0.7441,0-1.3921-0.0508-1.9438-0.1523c-0.5522-0.1035-1.0322-0.2383-1.4399-0.4082
		c-0.4082-0.1699-0.7686-0.3574-1.0801-0.5605c-0.312-0.2051-0.5884-0.4082-0.8276-0.6133c0.0474-0.793,0.0718-1.5703,0.0718-2.3281
		c0-0.7598-0.0361-1.5137-0.1079-2.2617c0.2637-0.0684,0.5635-0.1191,0.8999-0.1523c0.3359-0.0352,0.6479-0.0508,0.936-0.0508
		c0.0957,1.041,0.2573,1.8867,0.4858,2.5332c0.228,0.6445,0.5039,1.1484,0.8281,1.5117c0.3237,0.3633,0.6895,0.6074,1.0981,0.7305
		c0.4077,0.125,0.8398,0.1875,1.2959,0.1875c0.9839,0,1.7515-0.2441,2.3037-0.7305c0.5518-0.4883,0.8281-1.1621,0.8281-2.0234
		c0-0.4766-0.0542-0.8945-0.1621-1.2578s-0.3237-0.7188-0.6479-1.0703c-0.3237-0.3516-0.7979-0.7148-1.4219-1.0879
		c-0.6245-0.375-1.4521-0.8105-2.4839-1.3105c-1.0566-0.498-1.9385-1.0078-2.646-1.5293c-0.7085-0.5215-1.2842-1.0703-1.728-1.6484
		c-0.4443-0.5781-0.7622-1.207-0.9541-1.8867c-0.1924-0.6807-0.2881-1.4512-0.2881-2.3125c0-0.6802,0.1021-1.3262,0.3062-1.938
		c0.2036-0.6123,0.498-1.1787,0.8818-1.7002c0.3838-0.521,0.8516-0.9629,1.4043-1.3262c0.4316-0.2939,0.9233-0.5439,1.4761-0.7476
		c-0.0488-0.0454-0.0962-0.0796-0.144-0.1021c-0.6724-0.5215-1.1943-1.0596-1.5664-1.6152
		C2.0103,8.6035,1.7642,8.0366,1.6445,7.4585c-0.1201-0.5776-0.1802-1.1611-0.1802-1.751c0-0.6797,0.1318-1.3311,0.396-1.9546
		s0.6421-1.1733,1.1343-1.6494c0.4917-0.4756,1.0801-0.8608,1.7637-1.1558c0.6841-0.2944,1.458-0.4419,2.3223-0.4419
		c1.1997,0,2.1777,0.1475,2.9341,0.4419c0.7559,0.2949,1.3735,0.6235,1.854,0.9858c-0.0488,0.5898-0.0723,1.2358-0.0723,1.938
		c0,0.7031,0.0361,1.3828,0.1079,2.04c-0.312,0.0908-0.6064,0.1592-0.8818,0.2041c-0.2764,0.0459-0.5942,0.0679-0.9541,0.0679
		C9.9243,5.3452,9.75,4.6597,9.5464,4.127C9.3423,3.5942,9.1143,3.1748,8.8623,2.8687S8.3281,2.3535,8.0166,2.2397
		C7.7041,2.1265,7.3687,2.0698,7.0083,2.0698c-0.48,0-0.9121,0.0796-1.2959,0.2378c-0.3843,0.1592-0.7144,0.374-0.9897,0.646
		c-0.2764,0.272-0.4863,0.5781-0.6299,0.918c-0.144,0.3403-0.2163,0.6802-0.2163,1.02c0,0.4082,0.0415,0.7822,0.126,1.1221
		c0.084,0.3398,0.27,0.6748,0.5581,1.0029c0.2881,0.3291,0.7075,0.6631,1.2598,1.0029C6.3726,8.3599,7.104,8.7227,8.0166,9.1079
		c1.2236,0.5215,2.25,1.0259,3.0776,1.5127c0.8281,0.4878,1.5059,1.0088,2.0342,1.564c0.5278,0.5557,0.9058,1.1733,1.1338,1.853
		c0.228,0.6802,0.3423,1.4736,0.3423,2.3804c0,0.7256-0.1206,1.4224-0.3599,2.0918c-0.2402,0.668-0.5942,1.2793-1.062,1.8359
		c-0.4683,0.5547-1.0386,1.0352-1.71,1.4434c-0.4805,0.2734-0.9966,0.5-1.5483,0.6816C10.6201,22.9688,11.1846,23.4785,11.6162,24z
		 M7.0806,20.9063l0.7559,0.373c0.6958-0.0898,1.2959-0.2266,1.7998-0.4082c0.624-0.248,1.1221-0.5488,1.4941-0.9004
		s0.6357-0.7422,0.792-1.1738c0.1558-0.4297,0.2339-0.8604,0.2339-1.291c0-0.4531-0.0664-0.8896-0.1978-1.3091
		c-0.1323-0.4194-0.396-0.8384-0.792-1.2578s-0.9604-0.8501-1.6919-1.292c-0.7324-0.4424-1.6865-0.9126-2.8623-1.4111
		c-0.2397-0.0903-0.4561-0.1812-0.6479-0.272c-1.1284,0.2041-1.9922,0.6118-2.5918,1.2236
		c-0.6479,0.6802-0.9722,1.5303-0.9722,2.5503c0,0.4761,0.0659,0.9297,0.1982,1.3599c0.1313,0.4312,0.3716,0.856,0.7197,1.2754
		c0.3477,0.4199,0.8218,0.8379,1.4224,1.2578C5.3403,20.0508,6.1201,20.4746,7.0806,20.9063z"/>
	<path style="&st0;" d="M30.625,24c0.4316,0.543,0.7363,1.1094,0.918,1.6992c0.1797,0.5898,0.2695,1.2363,0.2695,1.9395
		c0,0.7246-0.1074,1.4102-0.3242,2.0566c-0.2168,0.6445-0.5586,1.2168-1.0254,1.7168c-0.4688,0.498-1.0684,0.8887-1.8008,1.1719
		s-1.6133,0.4258-2.6465,0.4258c-0.7441,0-1.3906-0.0508-1.9434-0.1523c-0.5527-0.1035-1.0313-0.2383-1.4395-0.4082
		s-0.7695-0.3574-1.0801-0.5605c-0.3125-0.2051-0.5879-0.4082-0.8281-0.6133c0.0469-0.793,0.0723-1.5703,0.0723-2.3281
		c0-0.7598-0.0371-1.5137-0.1094-2.2617c0.2656-0.0684,0.5645-0.1191,0.9004-0.1523c0.3359-0.0352,0.6484-0.0508,0.9355-0.0508
		c0.0957,1.041,0.2578,1.8867,0.4863,2.5332c0.2285,0.6445,0.5039,1.1484,0.8281,1.5117s0.6895,0.6074,1.0977,0.7305
		c0.4082,0.125,0.8398,0.1875,1.2969,0.1875c0.9844,0,1.752-0.2441,2.3047-0.7305c0.5508-0.4883,0.8281-1.1621,0.8281-2.0234
		c0-0.4766-0.0547-0.8945-0.1621-1.2578c-0.1094-0.3633-0.3242-0.7188-0.6484-1.0703s-0.7988-0.7148-1.4219-1.0879
		c-0.625-0.375-1.4531-0.8105-2.4844-1.3105c-1.0566-0.498-1.9375-1.0078-2.6465-1.5293c-0.707-0.5215-1.2832-1.0703-1.7285-1.6484
		c-0.4434-0.5781-0.7617-1.207-0.9531-1.8867c-0.1914-0.6807-0.2871-1.4512-0.2871-2.3125c0-0.6802,0.1016-1.3262,0.3047-1.938
		c0.2051-0.6123,0.498-1.1787,0.8828-1.7002c0.3828-0.521,0.8516-0.9629,1.4043-1.3262c0.4316-0.2939,0.9238-0.5439,1.4746-0.7476
		c-0.0469-0.0454-0.0957-0.0796-0.1426-0.1021c-0.6738-0.5215-1.1953-1.0596-1.5664-1.6152
		c-0.373-0.5552-0.6191-1.1221-0.7383-1.7002c-0.1211-0.5776-0.1797-1.1611-0.1797-1.751c0-0.6797,0.1309-1.3311,0.3965-1.9546
		c0.2637-0.6235,0.6406-1.1733,1.1328-1.6494c0.4922-0.4756,1.0801-0.8608,1.7637-1.1558c0.6855-0.2944,1.459-0.4419,2.3223-0.4419
		c1.2012,0,2.1777,0.1475,2.9336,0.4419c0.7559,0.2949,1.375,0.6235,1.8555,0.9858c-0.0488,0.5898-0.0723,1.2358-0.0723,1.938
		c0,0.7031,0.0352,1.3828,0.1074,2.04c-0.3125,0.0908-0.6055,0.1592-0.8828,0.2041c-0.2754,0.0459-0.5938,0.0679-0.9531,0.0679
		c-0.1445-0.8384-0.3184-1.5239-0.5215-2.0566c-0.2051-0.5327-0.4316-0.9521-0.6836-1.2583s-0.5352-0.5151-0.8477-0.6289
		c-0.3105-0.1133-0.6465-0.1699-1.0078-0.1699c-0.4805,0-0.9121,0.0796-1.2949,0.2378c-0.3848,0.1592-0.7148,0.374-0.9902,0.646
		s-0.4863,0.5781-0.6309,0.918c-0.1426,0.3403-0.2148,0.6802-0.2148,1.02c0,0.4082,0.041,0.7822,0.125,1.1221
		s0.2715,0.6748,0.5586,1.0029c0.2871,0.3291,0.707,0.6631,1.2598,1.0029c0.5527,0.3403,1.2832,0.7031,2.1953,1.0884
		c1.2246,0.5215,2.25,1.0259,3.0781,1.5127c0.8281,0.4878,1.5059,1.0088,2.0352,1.564c0.5273,0.5557,0.9043,1.1733,1.1328,1.853
		c0.2285,0.6802,0.3418,1.4736,0.3418,2.3804c0,0.7256-0.1191,1.4224-0.3594,2.0918c-0.2402,0.668-0.5938,1.2793-1.0625,1.8359
		c-0.4668,0.5547-1.0371,1.0352-1.709,1.4434c-0.4805,0.2734-0.9961,0.5-1.5488,0.6816C29.6289,22.9688,30.1914,23.4785,30.625,24z
		 M26.0879,20.9063l0.7559,0.373c0.6973-0.0898,1.2969-0.2266,1.8008-0.4082c0.623-0.248,1.1211-0.5488,1.4941-0.9004
		c0.3711-0.3516,0.6348-0.7422,0.791-1.1738c0.1563-0.4297,0.2344-0.8604,0.2344-1.291c0-0.4531-0.0664-0.8896-0.1973-1.3091
		c-0.1328-0.4194-0.3965-0.8384-0.793-1.2578s-0.959-0.8501-1.6914-1.292c-0.7324-0.4424-1.6855-0.9126-2.8613-1.4111
		c-0.2402-0.0903-0.457-0.1812-0.6484-0.272c-1.1289,0.2041-1.9922,0.6118-2.5918,1.2236
		c-0.6484,0.6802-0.9727,1.5303-0.9727,2.5503c0,0.4761,0.0664,0.9297,0.1973,1.3599c0.1328,0.4312,0.373,0.856,0.7207,1.2754
		c0.3477,0.4199,0.8223,0.8379,1.4219,1.2578S25.1289,20.4746,26.0879,20.9063z"/>
</g>
<g>
</g>
<g>
</g>
<g>
</g>
<g>
</g>
<g>
</g>
<g>
</g>
</svg>
